<svg data-v-0dd9719b="" version="1.0" xmlns="http://www.w3.org/2000/svg" xmlns:xlink="http://www.w3.org/1999/xlink" width="100%" height="100%" viewBox="0 0 340.000000 250.000000" preserveAspectRatio="xMidYMid meet" color-interpolation-filters="sRGB" style="margin: auto;"> <rect data-v-0dd9719b="" x="0" y="0" width="100%" height="100%" fill="#fff" fill-opacity="1" class="background"></rect> <rect data-v-0dd9719b="" x="0" y="0" width="100%" height="100%" fill="url(#watermark)" fill-opacity="1" class="watermarklayer"></rect> <g data-v-0dd9719b="" fill="#333" class="icon-text-wrapper icon-svg-group iconsvg" transform="translate(47.81999969482422,95.46575355529785)"><g class="iconsvg-imagesvg" transform="translate(0,0)"><g><rect fill="#333" fill-opacity="0" stroke-width="2" x="0" y="0" width="60" height="59.06848991405534" class="image-rect"></rect> <svg x="0" y="0" width="60" height="59.06848991405534" filtersec="colorsb376059570" class="image-svg-svg primary" style="overflow: visible;"><svg xmlns="http://www.w3.org/2000/svg" viewBox="0.4385022521018982 -0.000009216904800268821 101.5615005493164 99.98497772216797"><path d="M69.3 59.41l-9.89 9.89L51 77.73 30.46 98.26A6 6 0 0 1 22 89.83L42.56 69.3 51 60.88l9.9-9.9zM102 24.28a6 6 0 0 1-1.75 4.21L77.72 51l-8.42-8.44 22.5-22.5a6 6 0 0 1 10.2 4.22z" fill="#0059cc"></path><path d="M83.64 6a5.94 5.94 0 0 1-1.74 4.21L41.08 51l-8.42-8.42 9.9-9.89L51 24.24 73.48 1.75A6 6 0 0 1 83.64 6zM32.66 59.41L12.13 79.93a6 6 0 0 1-8.42-8.42L24.24 51z" fill="#00dac7"></path><path d="M51 24.24l-8.42 8.43-22.5-22.5A6 6 0 0 1 24.28 0a5.89 5.89 0 0 1 4.2 1.75zM98.25 79.93a5.94 5.94 0 0 1-8.42 0L51 41.09l8.42-8.42 9.9 9.89 8.4 8.44 20.53 20.51a6 6 0 0 1 0 8.42z" fill="#00baec"></path><path d="M51 60.88l-8.44 8.42L1.74 28.49a6 6 0 0 1 8.43-8.43l22.49 22.5L41.08 51zM79.93 98.26a6 6 0 0 1-8.42 0L51 77.73l8.42-8.43 20.51 20.53a6 6 0 0 1 0 8.43z" fill="#00abd8"></path></svg></svg> <!----></g></g> <g transform="translate(67,0.31299781799316406)"><g data-gra="path-name" fill-rule="" class="tp-name iconsvg-namesvg" transform="translate(0,0)"><g transform="scale(1)"><g><path d="M11.78-25.84L11.78-36.56Q16.35-34.45 16.35-34.28L16.35-34.28Q16.35-34.28 15.82-33.75L15.82-33.75Q14.59-32.7 14.59-32.34L14.59-32.34 14.59-25.84 29.18-25.84 29.18-36.56Q32.87-34.98 33.93-34.28L33.93-34.28Q33.93-34.28 33.22-33.75L33.22-33.75Q31.82-32.52 31.82-32.17L31.82-32.17 31.82-25.84 36.74-25.84 39.2-28.48 43.07-25.14 42.89-24.79 31.82-24.79 32.17 2.99Q31.82 4.04 29.18 4.75L29.18 4.75 29.18 0.53 14.59 0.53 14.59 3.69Q12.83 4.92 11.07 4.92L11.07 4.92Q11.43-1.05 11.78-24.79L11.78-24.79 3.87-24.79 2.29-24.43 1.23-25.84 11.78-25.84ZM29.18-0.53L29.18-13.01 14.59-13.01 14.59-0.53 29.18-0.53ZM29.18-14.06L29.18-24.79 14.59-24.79 14.59-14.06 29.18-14.06ZM65.21-30.94L65.21-37.27 69.61-34.8Q69.61-34.8 69.26-34.63L69.26-34.63Q68.03-33.93 68.03-33.22L68.03-33.22 68.03-30.94 76.99-30.94Q77.17-31.11 77.7-31.64L77.7-31.64Q78.93-33.05 78.93-32.87L78.93-32.87Q80.68-31.82 82.09-30.41L82.09-30.41Q80.86-29.36 80.51-28.83L80.51-28.83 80.51-25.49 82.97-25.49 85.25-28.3 88.59-25.14 88.59-24.61 80.51-24.61Q80.51-21.62 80.68-17.93L80.68-17.93Q79.8-17.4 77.7-17.23L77.7-17.23 77.7-18.98 68.03-18.98 68.03 4.39Q66.8 5.1 65.04 5.45L65.04 5.45Q65.04 5.1 65.04 2.99L65.04 2.99Q65.21-8.44 65.21-18.98L65.21-18.98 53.96-18.98 52.38-18.46 51.5-20.04 65.21-20.04 65.21-24.61 48.87-24.61 46.93-23.91 46.23-25.49 65.21-25.49 65.21-29.88 54.49-29.88 52.73-29.53 52.03-30.94 65.21-30.94ZM77.7-25.49L77.7-29.88 68.03-29.88 68.03-25.49 77.7-25.49ZM77.7-20.04L77.7-24.61 68.03-24.61 68.03-20.04 77.7-20.04ZM52.03-17.58L52.03-17.58 56.07-16.17Q56.25-16 55.9-16L55.9-16Q55.02-15.47 54.84-14.41L54.84-14.41Q54.84-14.24 54.67-12.66L54.67-12.66Q54.14-5.8 53.44-3.69L53.44-3.69Q50.1 2.99 46.41 5.27L46.41 5.27 46.05 4.75Q51.68-0.88 52.03-8.61L52.03-8.61Q52.03-13.18 52.03-17.58ZM78.4-16.7L78.4-16.7 82.44-14.77Q82.44-14.77 82.09-14.59L82.09-14.59Q81.21-14.06 81.21-13.54L81.21-13.54 81.21 4.22Q79.98 5.27 78.4 5.45L78.4 5.45Q78.4 4.57 78.4 2.64L78.4 2.64Q78.57-4.04 78.4-16.7ZM59.94-14.41L59.94-14.41 63.81-12.3 63.63-11.95Q62.93-11.78 61.88-10.72L61.88-10.72Q58.01-2.99 53.96 2.11L53.96 2.11 53.61 1.58Q57.13-4.22 59.94-14.41ZM69.43-13.54L69.96-14.06Q74.88-8.44 76.64-4.75L76.64-4.75Q77.17-2.29 74.36-0.88L74.36-0.88Q73.48-0.88 73.13-3.16L73.13-3.16Q72.25-8.79 69.43-13.54L69.43-13.54ZM101.43-29.71L101.43-36.74 105.47-34.98 104.24-33.93 104.24-29.71 108.63-29.71 110.92-32.34 114.43-29.18 114.26-28.65 104.24-28.65 104.24-23.91 107.4-23.91 108.81-25.84 112.15-23.55 110.39-21.97 110.74-10.72Q110.21-10.02 108.11-9.67L108.11-9.67 108.11-11.07 104.06-11.07 104.06-5.63 108.98-5.63 111.09-8.26 114.43-4.92 114.26-4.57 104.06-4.57 104.06 4.04Q103.18 4.92 101.07 5.1L101.07 5.1 101.43-4.57 94.92-4.57 92.99-4.22 91.76-5.63 101.43-5.63 101.43-11.07 97.56-11.07 97.56-9.49Q97.03-8.96 95.1-8.79L95.1-8.79 95.1-25.66 98.61-23.91 101.43-23.91 101.43-28.65 95.1-28.65 93.52-28.13 92.11-29.71 101.43-29.71ZM118.3-36.21L118.3-36.21 122.7-34.63Q122.7-34.63 122.52-34.45L122.52-34.45Q120.76-33.93 118.65-28.13L118.65-28.13 127.44-28.13 129.55-30.59 133.07-27.42 132.89-27.07 118.13-27.07Q116.19-23.03 114.08-19.69L114.08-19.69 121.99-19.69Q122.34-19.86 123.05-20.74L123.05-20.74Q123.75-21.62 123.93-21.62L123.93-21.62 127.27-18.28Q127.09-18.11 126.39-17.93L126.39-17.93Q124.8-17.58 124.45-16.88L124.45-16.88Q121.99-11.25 119.18-4.57L119.18-4.57Q116.19 1.23 120.59 1.05L120.59 1.05Q127.44 1.41 129.02 0.7L129.02 0.7Q130.43-0.35 131.13-7.73L131.13-7.73 131.84-7.73Q131.48 0 133.59 0.18L133.59 0.18Q132.54 2.64 130.08 3.52L130.08 3.52Q127.44 3.69 123.22 3.69L123.22 3.69Q119.71 3.52 118.3 3.34L118.3 3.34Q114.79 2.99 115.14-0.35L115.14-0.35Q115.14-1.58 122.17-18.63L122.17-18.63 117.25-18.63 115.49-18.11 113.91-19.51 112.68-17.75 111.97-18.11Q116.37-26.72 118.3-36.21ZM108.11-18.46L108.11-23.03 99.32-23.03Q97.21-23.38 97.56-21.27L97.56-21.27 97.56-18.46 108.11-18.46ZM108.11-12.13L108.11-17.4 97.56-17.4 97.56-12.13 108.11-12.13ZM166.82-37.44L166.82-37.44Q170.16-34.1 169.98-33.93L169.98-33.93Q169.8-33.75 169.1-33.93L169.1-33.93Q166.64-34.28 163.48-33.75L163.48-33.75Q160.84-33.22 157.68-33.05L157.68-33.05 157.68-27.6 171.04-27.6 173.14-30.06 177.01-26.72 176.84-26.54 157.68-26.54 157.68-16.52Q163.65-4.04 178.59-1.05L178.59-1.05 178.59-0.53Q175.61-0.88 173.5 1.41L173.5 1.41Q162.77-3.34 157.68-14.06L157.68-14.06 157.68 4.39Q156.97 5.27 154.69 5.63L154.69 5.63Q154.51 5.63 154.51 5.63L154.51 5.63 154.86-12.66Q146.07-2.11 135.88 2.81L135.88 2.81 135.7 2.29Q149.59-7.38 155.04-18.11L155.04-18.11 155.04-26.54 140.63-26.54 137.81-26.19 136.93-27.6 155.04-27.6 155.04-32.87Q146.43-31.99 139.57-31.64L139.57-31.64 139.57-32.34Q155.04-34.28 166.82-37.44ZM162.6-13.36L162.6-26.02 166.11-24.08Q166.11-24.08 165.59-23.73L165.59-23.73Q164.88-23.38 164.88-23.2L164.88-23.2 164.88-18.11Q171.04-22.32 172.79-23.91L172.79-23.91Q173.14-23.55 173.85-22.68L173.85-22.68Q175.61-20.92 175.08-20.92L175.08-20.92Q175.08-20.92 174.9-20.92L174.9-20.92Q173.67-21.09 171.74-20.21L171.74-20.21Q170.68-19.51 165.59-17.23L165.59-17.23Q165.76-17.4 164.88-16.88L164.88-16.88 164.88-14.06Q164.36-12.13 169.63-12.48L169.63-12.48Q172.79-12.48 173.14-13.54L173.14-13.54Q173.85-14.06 174.02-18.63L174.02-18.63 174.55-18.63Q174.73-14.59 176.13-13.36L176.13-13.36Q176.48-13.18 176.48-13.01L176.48-13.01Q176.13-10.2 169.63-10.37L169.63-10.37Q161.72-9.84 162.6-13.36L162.6-13.36ZM147.3-20.92L147.3-25.84 150.82-23.91Q150.82-23.91 150.29-23.55L150.29-23.55Q149.77-23.2 149.77-23.03L149.77-23.03 149.77-12.13Q148.71-11.07 147.13-10.72L147.13-10.72 147.13-14.06Q142.21-12.13 139.22-10.2L139.22-10.2Q138.69-9.84 138.52-9.84L138.52-9.84Q137.64-10.72 136.58-12.48L136.58-12.48Q136.58-12.48 137.11-12.66L137.11-12.66Q140.8-13.18 147.13-15.12L147.13-15.12 147.3-19.86 141.15-19.86 139.04-19.51 138.34-20.92 147.3-20.92Z" transform="translate(-1.2300000190734863, 37.439998626708984)"></path></g> <!----> <!----> <!----> <!----> <!----> <!----> <!----></g></g> <g data-gra="path-slogan" fill-rule="" class="tp-slogan iconsvg-slogansvg" fill="#333" transform="translate(4.999992370605469,49.06999969482422)"><rect x="0" height="1" y="4.185000419616699" width="22.269447326660156"></rect> <rect height="1" y="4.185000419616699" width="22.269447326660156" x="145.0905532836914"></rect> <g transform="translate(25.269447326660156,0)"><g transform="scale(1)"><path d="M7.31-3.61L4.69-3.61L4.69-4.59L8.44-4.59L8.44 0L7.69 0L7.41-1.08Q6.42 0.09 4.59 0.14L4.59 0.14Q2.86 0.14 1.92-0.75L1.92-0.75Q0.52-2.06 0.56-4.36L0.56-4.36Q0.89-8.63 4.64-8.81L4.64-8.81Q7.83-8.63 8.30-6L8.30-6L7.17-6Q6.70-7.78 4.59-7.83L4.59-7.83Q1.92-7.64 1.78-4.31L1.78-4.31Q1.78-0.75 4.64-0.75L4.64-0.75Q5.67-0.75 6.42-1.31L6.42-1.31Q7.36-2.06 7.31-3.61L7.31-3.61ZM15.89 0L15.05-2.48L11.58-2.48L10.69 0L9.52 0L12.75-8.58L14.06-8.58L17.16 0L15.89 0ZM13.31-7.31L11.95-3.52L14.63-3.52L13.36-7.31L13.31-7.31ZM19.59-8.58L23.91-1.64L23.91-8.58L25.03-8.58L25.03 0L23.72 0L19.36-6.94L19.31-6.94L19.31 0L18.19 0L18.19-8.58L19.59-8.58ZM33.09-6.09L33.09-6.09L32.02-6.09Q31.92-7.73 29.86-7.83L29.86-7.83Q27.94-7.78 27.94-6.33L27.94-6.33Q27.94-5.39 28.97-5.25L28.97-5.25L31.41-4.69Q33.33-4.22 33.33-2.34L33.33-2.34Q33.28 0.05 29.95 0.14L29.95 0.14Q28.13 0.14 27.38-0.61L27.38-0.61Q26.44-1.31 26.48-2.77L26.48-2.77L27.61-2.77Q27.66-0.80 29.95-0.75L29.95-0.75Q32.20-0.80 32.25-2.20L32.25-2.20Q32.44-3.38 30.38-3.75L30.38-3.75L28.59-4.13Q26.77-4.64 26.77-6.19L26.77-6.19Q26.91-8.72 29.77-8.81L29.77-8.81Q33-8.81 33.09-6.09ZM40.45-3.19L40.45-8.58L41.63-8.58L41.63-3.05Q41.48 0.05 38.11 0.14L38.11 0.14Q34.97 0.05 34.83-2.86L34.83-2.86L34.83-8.58L36-8.58L36-3.19Q36.05-0.84 38.16-0.80L38.16-0.80Q40.45-0.84 40.45-3.19L40.45-3.19ZM51.75-1.08L50.86-1.78L51.47-2.48L52.55-1.64Q53.53-2.63 53.53-4.27L53.53-4.27Q53.34-7.64 50.53-7.83L50.53-7.83Q47.67-7.69 47.53-4.27L47.53-4.27Q47.67-0.94 50.53-0.80L50.53-0.80Q51.23-0.80 51.75-1.08L51.75-1.08ZM53.48-0.94L54.61-0.05L54.05 0.56L52.73-0.33Q51.89 0.14 50.53 0.14L50.53 0.14Q46.59 0 46.31-4.27L46.31-4.27Q46.55-8.72 50.53-8.81L50.53-8.81Q54.42-8.67 54.70-4.27L54.70-4.27Q54.66-2.20 53.48-0.94L53.48-0.94ZM56.25-8.58L57.42-8.58L57.42 0L56.25 0L56.25-8.58ZM65.06 0L64.22-2.48L60.75-2.48L59.86 0L58.69 0L61.92-8.58L63.23-8.58L66.33 0L65.06 0ZM62.48-7.31L61.13-3.52L63.80-3.52L62.53-7.31L62.48-7.31ZM68.77-8.58L73.08-1.64L73.08-8.58L74.20-8.58L74.20 0L72.89 0L68.53-6.94L68.48-6.94L68.48 0L67.36 0L67.36-8.58L68.77-8.58ZM83.16-6.05L83.16-6.05L82.03-6.05Q81.61-7.78 79.64-7.83L79.64-7.83Q76.92-7.69 76.83-4.36L76.83-4.36Q76.83-0.80 79.69-0.80L79.69-0.80Q81.66-0.84 82.13-3.19L82.13-3.19L83.25-3.19Q82.73 0.05 79.45 0.14L79.45 0.14Q75.70 0 75.61-4.31L75.61-4.31Q75.80-8.63 79.64-8.81L79.64-8.81Q82.69-8.72 83.16-6.05ZM85.78-5.06L90.28-5.06L90.28-8.58L91.45-8.58L91.45 0L90.28 0L90.28-3.98L85.78-3.98L85.78 0L84.61 0L84.61-8.58L85.78-8.58L85.78-5.06ZM94.55-1.03L99.70-1.03L99.70 0L93.38 0L93.38-8.58L99.61-8.58L99.61-7.59L94.55-7.59L94.55-4.92L99.23-4.92L99.23-3.89L94.55-3.89L94.55-1.03ZM102.61-8.58L106.92-1.64L106.92-8.58L108.05-8.58L108.05 0L106.73 0L102.38-6.94L102.33-6.94L102.33 0L101.20 0L101.20-8.58L102.61-8.58ZM116.25-3.61L113.63-3.61L113.63-4.59L117.38-4.59L117.38 0L116.63 0L116.34-1.08Q115.36 0.09 113.53 0.14L113.53 0.14Q111.80 0.14 110.86-0.75L110.86-0.75Q109.45-2.06 109.50-4.36L109.50-4.36Q109.83-8.63 113.58-8.81L113.58-8.81Q116.77-8.63 117.23-6L117.23-6L116.11-6Q115.64-7.78 113.53-7.83L113.53-7.83Q110.86-7.64 110.72-4.31L110.72-4.31Q110.72-0.75 113.58-0.75L113.58-0.75Q114.61-0.75 115.36-1.31L115.36-1.31Q116.30-2.06 116.25-3.61L116.25-3.61Z" transform="translate(-0.5609879032258065, 8.8125)"></path></g></g></g></g></g><defs v-gra="od"></defs></svg>